<svg id="Capa_1" enable-background="new 0 0 512 512" height="512" viewBox="0 0 512 512" width="512" xmlns="http://www.w3.org/2000/svg"><g><path d="m497 180h-76v-30c19.028 0 36.636-1.113 48.501-12.876 7.632-7.573 11.499-18.384 11.499-32.124 0-36.05-29.209-105-75-105s-75 68.95-75 105c0 13.74 3.867 24.551 11.499 32.124 11.918 11.827 29.301 12.81 48.501 12.876v30h-42.691c-6.132 0-11.649 3.734-13.927 9.428l-27.136 68.839c4.779-1.349 10.062-2.267 16.254-2.267 22.573 0 34.79 10.854 43.711 18.794 7.602 6.753 12.612 11.206 23.789 11.206s16.187-4.453 23.789-11.206c8.921-7.94 21.138-18.794 43.711-18.794s35.79 10.854 44.711 18.794c3.018 2.677 5.784 5.05 8.789 6.964v-86.758c0-8.286-6.716-15-15-15z"/><path d="m458.5 286c-11.177 0-16.187 4.453-23.789 11.206-8.921 7.94-21.138 18.794-43.711 18.794s-34.79-10.854-43.711-18.794c-7.602-6.753-12.612-11.206-23.789-11.206-11.162 0-16.187 4.453-23.774 11.206-3.356 2.985-7.22 6.292-11.788 9.333l-33.691 84.229c.665.037 1.029.233 1.754.233 11.177 0 16.187-4.453 23.789-11.206 8.92-7.941 21.137-18.795 43.71-18.795s34.79 10.854 43.711 18.794c7.602 6.753 12.612 11.206 23.789 11.206s16.187-4.453 23.789-11.206c8.921-7.94 21.138-18.794 43.711-18.794s35.79 10.854 44.711 18.794c2.895 2.574 5.641 5.008 8.789 6.949v-72.746c-13.279-3.34-21.779-10.611-28.726-16.791-7.587-6.753-13.612-11.206-24.774-11.206z"/><path d="m458.5 391c-11.177 0-16.187 4.453-23.789 11.206-8.921 7.94-21.138 18.794-43.711 18.794s-34.79-10.854-43.711-18.794c-7.602-6.753-12.612-11.206-23.789-11.206s-16.187 4.453-23.789 11.206c-8.921 7.94-21.138 18.794-43.711 18.794-4.675 0-8.979-.705-13.195-1.63l-24.651 61.63h278.846c8.284 0 15-6.716 15-15v-47.089c-11.647-3.051-20.394-9.318-28.711-16.705-7.602-6.753-13.612-11.206-24.789-11.206z"/><path d="m52.5 286c22.573 0 35.79 10.854 44.711 18.794 7.602 6.753 12.612 11.206 23.789 11.206s16.187-4.453 23.789-11.206c8.921-7.94 21.138-18.794 43.711-18.794s34.79 10.854 43.711 18.794c6.573 5.839 11.444 9.765 19.803 10.772l41.827-105.566h-142.841v-30c19.028 0 36.636-1.113 48.501-12.876 7.632-7.573 11.499-18.384 11.499-32.124 0-36.05-29.209-105-75-105s-75 68.95-75 105c0 13.74 3.867 24.551 11.499 32.124 11.918 11.827 29.301 12.81 48.501 12.876v30h-106c-8.284 0-15 6.714-15 15v86.631c2.899-1.884 5.7-4.102 8.774-6.837 8.921-7.94 21.138-18.794 43.726-18.794z"/><path d="m52.5 391c22.573 0 35.79 10.854 44.711 18.794 7.602 6.753 12.612 11.206 23.789 11.206s16.187-4.453 23.789-11.206c8.921-7.94 21.138-18.794 43.711-18.794 13.112 0 22.482 3.763 29.985 8.386l22.128-55.318c-13.191-3.463-21.689-10.955-28.325-16.862-7.601-6.753-12.611-11.206-23.788-11.206s-16.187 4.453-23.789 11.206c-8.921 7.94-21.138 18.794-43.711 18.794s-34.79-10.854-43.711-18.794c-7.602-6.753-13.612-11.206-24.789-11.206s-16.187 4.468-23.789 11.206c-6.883 6.143-15.394 13.506-28.711 16.87v72.651c3.149-1.937 5.894-4.363 8.789-6.932 8.921-7.941 21.138-18.795 43.711-18.795z"/><path d="m15 512h148.686c6.132 0 11.649-3.735 13.927-9.43l29.517-74.792c-5.205-4.191-10.143-6.778-18.63-6.778-11.177 0-16.187 4.453-23.789 11.206-8.921 7.94-21.138 18.794-43.711 18.794s-34.79-10.854-43.711-18.794c-7.602-6.753-13.612-11.206-24.789-11.206s-16.187 4.453-23.789 11.206c-8.315 7.392-17.064 13.66-28.711 16.707v48.087c0 8.284 6.716 15 15 15z"/></g></svg>